<svg width="177" height="46" viewBox="0 0 177 46" fill="none" xmlns="http://www.w3.org/2000/svg">
<g clip-path="url(#clip0_171_638)">
<path d="M2.86845 44.181C1.94744 43.6262 1.20945 42.8133 0.745913 41.8431C0.225623 40.7271 -0.029675 39.5058 -4.93245e-05 38.2748C-0.0300466 37.0359 0.222425 35.8064 0.738223 34.6796C1.19254 33.7055 1.93118 32.8918 2.85691 32.3456C3.84779 31.7852 4.97188 31.5035 6.10992 31.5304C7.253 31.5021 8.38242 31.7838 9.37831 32.3456C10.3061 32.8904 11.0463 33.7044 11.5008 34.6796C11.9878 35.8096 12.239 37.0271 12.239 38.2575C12.239 39.488 11.9878 40.7055 11.5008 41.8354C11.0442 42.8122 10.3048 43.6293 9.37831 44.181C8.38345 44.7458 7.25355 45.0289 6.10992 45C4.97487 45.0285 3.85375 44.7452 2.86845 44.181ZM9.19375 42.0854C9.92689 41.1907 10.2935 39.909 10.2935 38.2402C10.2935 36.5868 9.92817 35.3102 9.20144 34.4219C8.82705 33.9763 8.35441 33.6235 7.82066 33.3913C7.28691 33.1591 6.70659 33.0539 6.1253 33.0838C5.54689 33.0545 4.96959 33.1601 4.43904 33.3924C3.90849 33.6246 3.43924 33.9771 3.06839 34.4219C2.32628 35.3256 1.96099 36.6022 1.96099 38.2556C1.96099 39.909 2.3455 41.1894 3.05301 42.1008C3.42406 42.5509 3.89591 42.9073 4.43034 43.1411C4.96476 43.3749 5.54674 43.4795 6.12915 43.4466C6.71041 43.4719 7.28965 43.3622 7.82138 43.126C8.35311 42.8899 8.82286 42.5337 9.19375 42.0854Z" fill="white"/>
<path d="M22.3713 35.7908C22.4583 35.8789 22.5259 35.9844 22.5697 36.1003C22.6134 36.2162 22.6322 36.34 22.6251 36.4637V44.0656C22.6297 44.1845 22.6088 44.3031 22.5637 44.4132C22.5186 44.5233 22.4504 44.6225 22.3636 44.7039C22.1733 44.8718 21.9249 44.9588 21.6715 44.9462C21.4372 44.9551 21.209 44.8708 21.037 44.7116C20.955 44.6299 20.8911 44.5319 20.8493 44.4239C20.8076 44.316 20.789 44.2004 20.7948 44.0848V43.3773C20.5249 43.8828 20.1133 44.2984 19.6104 44.5732C19.0908 44.8526 18.5086 44.9955 17.9186 44.9884C15.6986 44.9884 14.5899 43.767 14.5925 41.324V36.4637C14.5855 36.3404 14.6041 36.2169 14.6471 36.1011C14.6901 35.9853 14.7566 35.8797 14.8424 35.7908C15.0358 35.6204 15.2888 35.5333 15.5461 35.5486C15.7961 35.5361 16.0408 35.6232 16.2267 35.7908C16.3138 35.8789 16.3814 35.9844 16.4251 36.1003C16.4688 36.2162 16.4877 36.34 16.4805 36.4637V41.3009C16.43 41.8778 16.5853 42.454 16.9188 42.9274C17.0962 43.112 17.3125 43.2547 17.5519 43.3451C17.7914 43.4356 18.048 43.4715 18.3031 43.4504C18.6309 43.4641 18.958 43.4078 19.2623 43.2851C19.5667 43.1625 19.8413 42.9763 20.068 42.739C20.5261 42.2215 20.7635 41.5452 20.7294 40.8549V36.4637C20.7248 36.3408 20.7456 36.2183 20.7906 36.1038C20.8356 35.9893 20.9038 35.8854 20.9909 35.7985C21.1799 35.6278 21.4285 35.538 21.683 35.5486C21.8081 35.5405 21.9336 35.5578 22.0519 35.5994C22.1701 35.641 22.2788 35.7061 22.3713 35.7908Z" fill="white"/>
<path d="M30.3116 43.7234C30.3777 43.7991 30.4275 43.8876 30.4579 43.9834C30.4883 44.0793 30.4986 44.1803 30.4881 44.2803C30.4776 44.3803 30.4467 44.477 30.3971 44.5645C30.3475 44.6519 30.2805 44.7282 30.2001 44.7885C29.9414 44.9317 29.6431 44.9871 29.3503 44.9462L28.8466 44.9077C28.002 44.9038 27.1917 44.5731 26.5856 43.9849C26.0857 43.4427 25.8396 42.6429 25.8396 41.5817V37.1905H24.7168C24.1708 37.1905 23.894 36.9482 23.894 36.4637C23.8896 36.3644 23.9066 36.2654 23.9437 36.1732C23.9809 36.081 24.0373 35.9978 24.1093 35.9293C24.2796 35.7892 24.4968 35.7191 24.7168 35.7332H25.8396V33.8106C25.8327 33.6872 25.8513 33.5638 25.8943 33.448C25.9373 33.3322 26.0038 33.2265 26.0896 33.1377C26.2766 32.9695 26.5228 32.8823 26.774 32.8954C27.0262 32.8834 27.2732 32.9703 27.4623 33.1377C27.552 33.2242 27.6218 33.3292 27.6669 33.4454C27.7121 33.5616 27.7315 33.6862 27.7238 33.8106V35.7332H29.5733C29.7935 35.7183 30.0109 35.7885 30.1808 35.9293C30.2536 35.9972 30.3106 36.0802 30.3479 36.1726C30.3851 36.2649 30.4016 36.3643 30.3962 36.4637C30.4038 36.5645 30.3884 36.6657 30.3511 36.7597C30.3138 36.8536 30.2556 36.9378 30.1808 37.0059C30.0076 37.1395 29.7916 37.2052 29.5733 37.1905H27.7238V41.7124C27.6928 42.1741 27.8293 42.6314 28.1083 43.0005C28.2535 43.148 28.4265 43.2654 28.6172 43.3459C28.8078 43.4264 29.0126 43.4684 29.2195 43.4696L29.7425 43.5081C29.9513 43.5122 30.1523 43.5883 30.3116 43.7234Z" fill="white"/>
<path d="M39.9898 31.8303C40.0774 31.9144 40.146 32.0162 40.1911 32.1289C40.2362 32.2416 40.2567 32.3627 40.2513 32.484V44.0195C40.2582 44.1431 40.2393 44.2669 40.1955 44.3828C40.1518 44.4986 40.0844 44.6041 39.9975 44.6924C39.8044 44.8488 39.5635 44.9341 39.315 44.9341C39.0665 44.9341 38.8256 44.8488 38.6325 44.6924C38.5471 44.6032 38.4808 44.4975 38.4378 44.3818C38.3948 44.2661 38.376 44.1428 38.3825 44.0195V43.2504C38.1235 43.7841 37.7058 44.2246 37.1867 44.5117C36.6347 44.8253 36.0105 44.9896 35.3756 44.9885C34.6307 45.0006 33.8988 44.7919 33.2723 44.3886C32.6439 43.9755 32.1454 43.3929 31.8342 42.7083C31.4802 41.9288 31.3042 41.0803 31.319 40.2243C31.3004 39.3667 31.4765 38.5161 31.8342 37.7365C32.1445 37.065 32.6393 36.4956 33.2608 36.0946C33.894 35.6985 34.6289 35.4954 35.3756 35.5101C36.0035 35.496 36.6241 35.6472 37.1752 35.9485C37.6869 36.2338 38.1009 36.6666 38.3633 37.1905V32.4455C38.3578 32.3295 38.3777 32.2137 38.4215 32.1061C38.4654 31.9985 38.5321 31.9018 38.6171 31.8226C38.8042 31.6578 39.0488 31.5735 39.2977 31.588C39.5509 31.577 39.7987 31.6638 39.9898 31.8303ZM37.7212 42.6467C38.2116 41.9496 38.4491 41.1057 38.3941 40.2551C38.4476 39.4057 38.2133 38.5631 37.7289 37.8634C37.5018 37.5836 37.2115 37.3617 36.882 37.216C36.5524 37.0702 36.193 37.0048 35.8332 37.0251C35.4702 37.0045 35.1074 37.0689 34.7737 37.2131C34.4399 37.3572 34.1444 37.5773 33.9106 37.8557C33.4162 38.5411 33.1756 39.3771 33.23 40.2204C33.1807 41.0757 33.4249 41.9222 33.9221 42.6198C34.1573 42.8907 34.4474 43.1083 34.7732 43.2583C35.0991 43.4083 35.4531 43.4872 35.8117 43.4897C36.1704 43.4923 36.5255 43.4184 36.8534 43.2731C37.1813 43.1277 37.4745 42.9142 37.7135 42.6467H37.7212Z" fill="white"/>
<path d="M44.4925 44.404C43.8176 44.0201 43.2716 43.4447 42.9237 42.7506C42.5625 41.9669 42.3755 41.1142 42.3755 40.2512C42.3755 39.3883 42.5625 38.5356 42.9237 37.7519C43.2705 37.0569 43.8167 36.4812 44.4925 36.0984C45.2218 35.7171 46.0325 35.5179 46.8554 35.5179C47.6783 35.5179 48.489 35.7171 49.2182 36.0984C49.8959 36.48 50.4437 37.0559 50.7909 37.7519C51.1521 38.5356 51.3391 39.3883 51.3391 40.2512C51.3391 41.1142 51.1521 41.9669 50.7909 42.7506C50.4427 43.4458 49.8952 44.0215 49.2182 44.404C48.489 44.7854 47.6783 44.9846 46.8554 44.9846C46.0325 44.9846 45.2218 44.7854 44.4925 44.404ZM48.7722 42.6814C49.2144 42.1315 49.4336 41.3317 49.4336 40.2704C49.4916 39.4171 49.254 38.5698 48.7607 37.8711C48.5174 37.6089 48.2226 37.3998 47.8947 37.2567C47.5669 37.1137 47.2131 37.0399 46.8554 37.0399C46.4977 37.0399 46.1439 37.1137 45.816 37.2567C45.4882 37.3998 45.1934 37.6089 44.9501 37.8711C44.4585 38.5706 44.221 39.4173 44.2772 40.2704C44.2772 41.3317 44.5002 42.1315 44.9424 42.6814C45.1891 42.944 45.4869 43.1532 45.8176 43.2963C46.1483 43.4394 46.5047 43.5132 46.865 43.5132C47.2253 43.5132 47.5817 43.4394 47.9124 43.2963C48.2431 43.1532 48.5409 42.944 48.7876 42.6814H48.7722Z" fill="white"/>
<path d="M55.032 44.404C54.3551 44.0215 53.8075 43.4458 53.4593 42.7506C53.0982 41.9669 52.9111 41.1142 52.9111 40.2512C52.9111 39.3883 53.0982 38.5356 53.4593 37.7519C53.8066 37.0559 54.3543 36.48 55.032 36.0984C55.7612 35.7171 56.5719 35.5179 57.3949 35.5179C58.2178 35.5179 59.0285 35.7171 59.7577 36.0984C60.4335 36.4812 60.9798 37.0569 61.3266 37.7519C61.6877 38.5356 61.8748 39.3883 61.8748 40.2512C61.8748 41.1142 61.6877 41.9669 61.3266 42.7506C60.9786 43.4447 60.4327 44.0201 59.7577 44.404C59.0285 44.7854 58.2178 44.9846 57.3949 44.9846C56.5719 44.9846 55.7612 44.7854 55.032 44.404ZM59.3078 42.6814C59.75 42.1315 59.9731 41.3317 59.9731 40.2704C60.0292 39.4173 59.7918 38.5706 59.3002 37.8711C59.0568 37.6089 58.7621 37.3998 58.4342 37.2567C58.1064 37.1137 57.7525 37.0399 57.3949 37.0399C57.0372 37.0399 56.6834 37.1137 56.3555 37.2567C56.0277 37.3998 55.7329 37.6089 55.4896 37.8711C54.9963 38.5698 54.7586 39.4171 54.8167 40.2704C54.8167 41.3317 55.0359 42.1315 55.4781 42.6814C55.7247 42.944 56.0226 43.1532 56.3532 43.2963C56.6839 43.4394 57.0404 43.5132 57.4006 43.5132C57.7609 43.5132 58.1174 43.4394 58.448 43.2963C58.7787 43.1532 59.0766 42.944 59.3232 42.6814H59.3078Z" fill="white"/>
<path d="M69.6513 36.3138C69.66 36.425 69.646 36.5369 69.6104 36.6426C69.5747 36.7483 69.518 36.8458 69.4436 36.929C69.2422 37.091 68.9907 37.178 68.7323 37.1751L68.1747 37.2289C67.8412 37.2414 67.5139 37.3223 67.213 37.4665C66.912 37.6107 66.6439 37.8151 66.4252 38.0671C66.0427 38.5572 65.8416 39.1645 65.8561 39.7859V44.0656C65.8657 44.1902 65.8471 44.3153 65.8019 44.4318C65.7566 44.5483 65.6858 44.6531 65.5946 44.7385C65.4044 44.8913 65.1655 44.9705 64.9217 44.9615C64.6757 44.9693 64.4348 44.8903 64.2411 44.7385C64.1481 44.6542 64.0755 44.5497 64.0289 44.4331C63.9822 44.3165 63.9628 44.1908 63.9719 44.0656V36.4445C63.9645 36.3206 63.9848 36.1966 64.0314 36.0815C64.0779 35.9664 64.1496 35.8632 64.2411 35.7793C64.4323 35.622 64.6743 35.5399 64.9217 35.5486C65.1525 35.5418 65.3771 35.6245 65.5485 35.7793C65.6344 35.8626 65.7016 35.9633 65.7453 36.0748C65.7891 36.1862 65.8085 36.3057 65.8022 36.4253V37.3212C66.0241 36.8026 66.4017 36.3659 66.8827 36.0715C67.3718 35.7803 67.9222 35.6078 68.49 35.5678H68.7515C69.3513 35.5101 69.6513 35.7601 69.6513 36.3138Z" fill="white"/>
<path d="M16.7034 13.012C16.1434 12.4307 15.5023 11.9333 14.8 11.5355C14.0615 11.1091 13.29 10.7427 12.4929 10.4396C11.3932 10.0551 10.455 9.69751 9.67823 9.36298C9.02289 9.10017 8.41894 8.72401 7.89407 8.25173C7.69796 8.07183 7.54133 7.85317 7.43411 7.60959C7.32688 7.36602 7.27139 7.10284 7.27115 6.83671C7.26951 6.58556 7.32673 6.33753 7.43825 6.11249C7.54977 5.88746 7.71246 5.69169 7.9133 5.54089C8.44366 5.15366 9.09178 4.96208 9.74744 4.99872C10.334 4.99339 10.9149 5.11402 11.4509 5.35247C11.985 5.59308 12.474 5.92341 12.8966 6.32914C13.23 6.64647 13.5302 6.99691 13.7926 7.37503C13.87 7.48753 13.9868 7.56692 14.1199 7.59753C14.253 7.62813 14.3928 7.60774 14.5116 7.54037L17.9223 5.63701C17.987 5.60077 18.0438 5.55187 18.0893 5.49324C18.1348 5.4346 18.1681 5.36741 18.1871 5.29567C18.2061 5.22393 18.2105 5.1491 18.2 5.07563C18.1895 5.00216 18.1644 4.93154 18.1261 4.86798C17.7103 4.18351 17.216 3.5499 16.6534 2.98C15.8256 2.1525 14.8483 1.48965 13.7733 1.02666C12.4786 0.486075 11.0847 0.224051 9.68207 0.257624C8.25658 0.236268 6.84146 0.503074 5.5216 1.04204C4.33797 1.52024 3.31126 2.31923 2.55698 3.34914C1.81426 4.40107 1.43123 5.66479 1.46495 6.95206C1.43383 7.98238 1.65284 9.00489 2.10325 9.93207C2.50759 10.7221 3.05521 11.4301 3.71822 12.02C4.34501 12.575 5.04178 13.0456 5.79076 13.4196C6.41653 13.7336 7.05826 14.0147 7.71335 14.2617C8.8669 14.6847 9.7782 15.0692 10.4742 15.4153C11.045 15.6643 11.5602 16.0251 11.9892 16.4765C12.3188 16.8916 12.4868 17.4121 12.4621 17.9416C12.4746 18.2695 12.4078 18.5957 12.2672 18.8922C12.1266 19.1888 11.9165 19.447 11.6546 19.645C10.8856 20.2333 9.8205 20.414 8.46316 20.1564H8.39779C7.24954 19.8345 6.21703 19.1915 5.42163 18.303C4.92959 17.7775 4.4928 17.2028 4.11812 16.5881C4.07779 16.5241 4.0248 16.4691 3.9624 16.4264C3.90001 16.3837 3.82953 16.3543 3.75532 16.3399C3.68111 16.3255 3.60474 16.3264 3.5309 16.3426C3.45707 16.3589 3.38734 16.39 3.32601 16.4342L0.249878 18.6644C0.141592 18.7407 0.0644655 18.8535 0.0326765 18.982C0.000887394 19.1106 0.0165714 19.2463 0.0768457 19.3643C0.616788 20.36 1.30528 21.2676 2.11863 22.0559C3.10533 23.0125 4.26554 23.7721 5.53698 24.2938C7.91456 25.2538 10.5504 25.3652 13.0005 24.6091C14.0087 24.2992 14.9548 23.8151 15.7959 23.1787C16.6115 22.5515 17.2785 21.7518 17.7492 20.837C18.2373 19.8506 18.48 18.7611 18.4567 17.6609C18.4731 16.7629 18.3124 15.8705 17.9838 15.0346C17.6843 14.2878 17.2503 13.6022 16.7034 13.012Z" fill="#D43730"/>
<path d="M21.2329 24.363H26.4239C26.5282 24.3638 26.6305 24.335 26.719 24.2798C26.8076 24.2247 26.8786 24.1455 26.9238 24.0515L28.8387 20.1295C28.8839 20.0355 28.9549 19.9563 29.0434 19.9012C29.1319 19.846 29.2343 19.8172 29.3385 19.818H36.1445C36.2487 19.8176 36.3508 19.8467 36.4393 19.9018C36.5277 19.9568 36.5988 20.0358 36.6443 20.1295L38.5477 24.0515C38.5929 24.1455 38.6639 24.2247 38.7524 24.2798C38.8409 24.335 38.9433 24.3638 39.0476 24.363H44.2732C44.3674 24.363 44.4601 24.3389 44.5424 24.2931C44.6248 24.2473 44.6941 24.1812 44.7437 24.1011C44.7934 24.021 44.8218 23.9296 44.8263 23.8355C44.8307 23.7413 44.8111 23.6476 44.7692 23.5632L33.2298 0.307613C33.184 0.215229 33.1133 0.137479 33.0257 0.0831244C32.938 0.0287695 32.8369 -3.05176e-05 32.7338 -3.05176e-05C32.6307 -3.05176e-05 32.5296 0.0287695 32.442 0.0831244C32.3543 0.137479 32.2836 0.215229 32.2378 0.307613L20.7369 23.5632C20.695 23.6476 20.6754 23.7413 20.6798 23.8355C20.6843 23.9296 20.7127 24.021 20.7624 24.1011C20.812 24.1812 20.8813 24.2473 20.9637 24.2931C21.046 24.3389 21.1387 24.363 21.2329 24.363ZM34.2219 16.0766H31.2457C31.1683 16.0772 31.092 16.0585 31.0236 16.0222C30.9553 15.9858 30.8971 15.933 30.8543 15.8684C30.8116 15.8039 30.7856 15.7297 30.7787 15.6526C30.7719 15.5755 30.7844 15.4979 30.8151 15.4268L32.2993 11.9854C32.3361 11.9024 32.3963 11.8319 32.4724 11.7825C32.5485 11.733 32.6373 11.7067 32.728 11.7067C32.8188 11.7067 32.9076 11.733 32.9837 11.7825C33.0598 11.8319 33.1199 11.9024 33.1568 11.9854L34.6564 15.4268C34.6872 15.4982 34.6997 15.5761 34.6927 15.6536C34.6856 15.731 34.6593 15.8054 34.6161 15.8701C34.5729 15.9347 34.5142 15.9875 34.4453 16.0235C34.3764 16.0596 34.2996 16.0779 34.2219 16.0766Z" fill="#D43730"/>
<path d="M63.2377 12.9159L48.8337 0.603706C48.7533 0.533986 48.6547 0.488724 48.5494 0.473263C48.4441 0.457803 48.3366 0.47279 48.2396 0.516455C48.1426 0.560119 48.0601 0.630639 48.0018 0.719685C47.9436 0.808731 47.912 0.912585 47.9109 1.01898V23.8093C47.9108 23.9535 47.9671 24.0921 48.0676 24.1955C48.1681 24.2989 48.305 24.359 48.4492 24.363H52.7943C52.8671 24.3635 52.9393 24.3495 53.0067 24.3219C53.0742 24.2942 53.1354 24.2535 53.1869 24.202C53.2384 24.1504 53.2792 24.0892 53.3069 24.0218C53.3345 23.9544 53.3485 23.8822 53.348 23.8093V12.6891C53.3491 12.5827 53.3806 12.4788 53.4389 12.3898C53.4971 12.3007 53.5796 12.2302 53.6767 12.1865C53.7737 12.1429 53.8812 12.1279 53.9865 12.1433C54.0918 12.1588 54.1904 12.2041 54.2708 12.2738L68.7286 24.2246C68.809 24.2943 68.9077 24.3396 69.0129 24.355C69.1182 24.3705 69.2257 24.3555 69.3227 24.3118C69.4198 24.2682 69.5023 24.1976 69.5605 24.1086C69.6188 24.0196 69.6503 23.9157 69.6515 23.8093V1.34198C69.6515 1.19513 69.5931 1.05429 69.4893 0.95045C69.3854 0.846611 69.2446 0.788274 69.0978 0.788274H64.7143C64.6414 0.787763 64.5692 0.801736 64.5018 0.829381C64.4344 0.857026 64.3731 0.897792 64.3216 0.94931C64.2701 1.00083 64.2293 1.06207 64.2017 1.12948C64.174 1.19689 64.1601 1.26912 64.1606 1.34198V12.493C64.1609 12.6 64.1304 12.7049 64.0727 12.7951C64.0151 12.8853 63.9326 12.957 63.8353 13.0016C63.738 13.0462 63.6299 13.0618 63.5239 13.0466C63.418 13.0314 63.3186 12.9861 63.2377 12.9159Z" fill="#D43730"/>
<path d="M79.1412 0.788262H75.9228C75.8496 0.787237 75.777 0.80083 75.7091 0.828245C75.6413 0.85566 75.5796 0.896345 75.5276 0.947915C75.4757 0.999485 75.4346 1.0609 75.4067 1.12857C75.3788 1.19623 75.3647 1.26878 75.3652 1.34197V23.8093C75.3647 23.8821 75.3787 23.9544 75.4064 24.0218C75.434 24.0892 75.4748 24.1504 75.5263 24.202C75.5778 24.2535 75.639 24.2942 75.7065 24.3219C75.7739 24.3495 75.8461 24.3635 75.919 24.363H80.2678C80.4147 24.363 80.5555 24.3047 80.6594 24.2008C80.7632 24.097 80.8215 23.9561 80.8215 23.8093V15.4537C80.821 15.3809 80.835 15.3086 80.8627 15.2412C80.8903 15.1738 80.9311 15.1126 80.9826 15.0611C81.0341 15.0095 81.0953 14.9688 81.1627 14.9411C81.2302 14.9135 81.3024 14.8995 81.3753 14.9H88.7887C88.9353 14.899 89.0755 14.8404 89.1791 14.7367C89.2828 14.6331 89.3414 14.4929 89.3424 14.3463V10.8857C89.3424 10.7388 89.2841 10.598 89.1803 10.4941C89.0764 10.3903 88.9356 10.332 88.7887 10.332H81.3791C81.2322 10.332 81.0914 10.2736 80.9876 10.1698C80.8837 10.066 80.8254 9.92512 80.8254 9.77827V6.22533C80.8249 6.15247 80.8388 6.08024 80.8665 6.01283C80.8941 5.94542 80.9349 5.88418 80.9864 5.83266C81.0379 5.78114 81.0992 5.74038 81.1666 5.71273C81.234 5.68509 81.3062 5.67111 81.3791 5.67163H91.5573C91.6301 5.67214 91.7023 5.65816 91.7698 5.63052C91.8372 5.60287 91.8984 5.56211 91.9499 5.51059C92.0014 5.45907 92.0422 5.39783 92.0699 5.33042C92.0975 5.26301 92.1115 5.19078 92.111 5.11792V1.34197C92.1115 1.26911 92.0975 1.19688 92.0699 1.12947C92.0422 1.06206 92.0014 1.00082 91.9499 0.949298C91.8984 0.89778 91.8372 0.857014 91.7698 0.829369C91.7023 0.801724 91.6301 0.787751 91.5573 0.788262H79.1412Z" fill="#D43730"/>
<path d="M116.097 3.58369C114.887 2.46901 113.468 1.60517 111.921 1.04204C108.546 -0.147313 104.865 -0.147313 101.489 1.04204C99.9321 1.60087 98.5019 2.46497 97.2828 3.58369C96.0982 4.68079 95.1531 6.01082 94.5066 7.49038C93.8259 9.06775 93.4865 10.7713 93.5107 12.4891C93.491 14.2093 93.818 15.9159 94.472 17.507C95.0926 19.0085 96.0214 20.3629 97.1982 21.4829C98.4019 22.6233 99.8218 23.5111 101.374 24.0938C104.794 25.3296 108.539 25.3296 111.96 24.0938C113.512 23.5102 114.931 22.6225 116.136 21.4829C117.313 20.3629 118.241 19.0085 118.862 17.507C119.516 15.9159 119.843 14.2093 119.823 12.4891C119.846 10.7733 119.514 9.07136 118.847 7.49038C118.213 6.01058 117.276 4.67982 116.097 3.58369ZM112.725 16.1497C112.173 17.196 111.337 18.0661 110.314 18.6606C109.195 19.2564 107.946 19.5681 106.679 19.5681C105.411 19.5681 104.162 19.2564 103.043 18.6606C102.02 18.0661 101.184 17.196 100.632 16.1497C100.045 15.0106 99.7521 13.7432 99.7784 12.4622C99.7525 11.1812 100.046 9.91398 100.632 8.77467C101.188 7.7326 102.026 6.86788 103.051 6.27916C104.176 5.68354 105.43 5.37216 106.704 5.37216C107.977 5.37216 109.231 5.68354 110.356 6.27916C111.372 6.87076 112.196 7.74074 112.733 8.78621C113.31 9.92809 113.598 11.1944 113.571 12.4737C113.598 13.7502 113.307 15.0133 112.725 16.1497Z" fill="#D43730"/>
<path d="M138.718 15.2038C140.059 14.6472 141.208 13.7119 142.025 12.5122C142.785 11.3216 143.177 9.9332 143.152 8.5209C143.18 7.09735 142.788 5.69701 142.025 4.49501C141.21 3.29334 140.06 2.35742 138.718 1.80339C136.994 1.08824 135.139 0.742428 133.274 0.788269H124.584C124.511 0.787758 124.438 0.801731 124.371 0.829376C124.304 0.857021 124.242 0.897787 124.191 0.949306C124.139 1.00082 124.099 1.06207 124.071 1.12948C124.043 1.19689 124.029 1.26912 124.03 1.34197V23.8093C124.029 23.8821 124.043 23.9544 124.071 24.0218C124.099 24.0892 124.139 24.1504 124.191 24.202C124.242 24.2535 124.304 24.2942 124.371 24.3219C124.438 24.3495 124.511 24.3635 124.584 24.363H129.582C129.655 24.3635 129.727 24.3495 129.795 24.3219C129.862 24.2942 129.923 24.2535 129.975 24.202C130.026 24.1504 130.067 24.0892 130.095 24.0218C130.122 23.9544 130.136 23.8821 130.136 23.8093V16.7342C130.136 16.5873 130.194 16.4465 130.298 16.3427C130.402 16.2388 130.543 16.1805 130.69 16.1805H131.693C131.784 16.1806 131.874 16.2032 131.955 16.2461C132.035 16.289 132.104 16.351 132.155 16.4266L137.307 24.1169C137.358 24.1925 137.427 24.2545 137.507 24.2974C137.588 24.3403 137.677 24.3628 137.769 24.363H143.563C143.666 24.3626 143.766 24.3338 143.853 24.2798C143.94 24.2258 144.011 24.1486 144.057 24.0569C144.102 23.9652 144.122 23.8626 144.113 23.7605C144.104 23.6584 144.067 23.5608 144.005 23.4786L138.468 16.0497C138.419 15.982 138.385 15.904 138.37 15.8214C138.355 15.7389 138.358 15.654 138.381 15.573C138.403 15.4921 138.443 15.4172 138.498 15.3539C138.553 15.2906 138.622 15.2406 138.699 15.2077L138.718 15.2038ZM130.147 6.15228C130.148 6.00574 130.207 5.86549 130.311 5.76186C130.414 5.65824 130.555 5.59958 130.701 5.59858H132.835C133.562 5.58616 134.285 5.71681 134.962 5.98309C135.51 6.19483 135.984 6.56407 136.323 7.04436C136.648 7.53741 136.813 8.11887 136.796 8.70932C136.822 9.29681 136.658 9.87711 136.328 10.3641C135.999 10.851 135.521 11.2187 134.965 11.4125C134.286 11.6642 133.564 11.7843 132.839 11.7662H130.705C130.558 11.7662 130.417 11.7079 130.313 11.604C130.21 11.5002 130.151 11.3594 130.151 11.2125L130.147 6.15228Z" fill="#D43730"/>
<path d="M168.211 6.30993C167.085 4.53484 165.473 3.12121 163.566 2.2379C161.334 1.22416 158.902 0.728568 156.452 0.788267H148.07C147.997 0.787755 147.925 0.801728 147.857 0.829373C147.79 0.857019 147.729 0.897785 147.677 0.949303C147.626 1.00082 147.585 1.06206 147.557 1.12947C147.53 1.19688 147.516 1.26911 147.516 1.34197V23.8093C147.516 23.8821 147.53 23.9544 147.557 24.0218C147.585 24.0892 147.626 24.1504 147.677 24.202C147.729 24.2535 147.79 24.2942 147.857 24.3219C147.925 24.3495 147.997 24.3635 148.07 24.363H156.452C158.902 24.4239 161.334 23.9296 163.566 22.9172C165.475 22.0354 167.088 20.6199 168.211 18.8413C169.34 16.9579 169.911 14.7922 169.857 12.5968C169.919 10.387 169.348 8.20554 168.211 6.30993ZM162.993 15.7921C162.629 16.6058 162.07 17.3175 161.366 17.8647C160.664 18.3902 159.862 18.7681 159.009 18.9759C158.102 19.2003 157.171 19.3127 156.237 19.3104H154.287C154.141 19.3104 154 19.2521 153.896 19.1483C153.792 19.0444 153.734 18.9036 153.734 18.7567V6.39452C153.734 6.24767 153.792 6.10683 153.896 6.00299C154 5.89915 154.141 5.84082 154.287 5.84082H156.237C157.171 5.83858 158.102 5.95092 159.009 6.17535C159.863 6.38892 160.665 6.7735 161.366 7.30583C162.07 7.853 162.629 8.56471 162.993 9.37837C163.427 10.3942 163.634 11.4926 163.6 12.5968C163.631 13.6933 163.424 14.7834 162.993 15.7921Z" fill="#D43730"/>
</g>
<defs>
<clipPath id="clip0_171_638">
<rect width="169.856" height="45" fill="white"/>
</clipPath>
</defs>
</svg>
